<?xml version="1.0" encoding="UTF-8" standalone="no"?>
<!DOCTYPE svg PUBLIC "-//W3C//DTD SVG 1.1//EN"
 "http://www.w3.org/Graphics/SVG/1.1/DTD/svg11.dtd">
<!-- Generated by graphviz version 2.30.1 (20180420.1509)
 -->
<!-- Title: snakemake_dag Pages: 1 -->
<svg width="228pt" height="476pt"
 viewBox="0.00 0.00 228.00 476.00" xmlns="http://www.w3.org/2000/svg" xmlns:xlink="http://www.w3.org/1999/xlink">
<g id="graph0" class="graph" transform="scale(1 1) rotate(0) translate(4 472)">
<title>snakemake_dag</title>
<polygon fill="white" stroke="white" points="-4,5 -4,-472 225,-472 225,5 -4,5"/>
<!-- 0 -->
<g id="node1" class="node"><title>0</title>
<path fill="none" stroke="#ced856" stroke-width="2" d="M141,-36C141,-36 111,-36 111,-36 105,-36 99,-30 99,-24 99,-24 99,-12 99,-12 99,-6 105,-0 111,-0 111,-0 141,-0 141,-0 147,-0 153,-6 153,-12 153,-12 153,-24 153,-24 153,-30 147,-36 141,-36"/>
<text text-anchor="middle" x="126" y="-15.5" font-family="sans" font-size="10.00">all</text>
</g>
<!-- 1 -->
<g id="node2" class="node"><title>1</title>
<path fill="none" stroke="#9fd856" stroke-width="2" d="M102,-108C102,-108 56,-108 56,-108 50,-108 44,-102 44,-96 44,-96 44,-84 44,-84 44,-78 50,-72 56,-72 56,-72 102,-72 102,-72 108,-72 114,-78 114,-84 114,-84 114,-96 114,-96 114,-102 108,-108 102,-108"/>
<text text-anchor="middle" x="79" y="-87.5" font-family="sans" font-size="10.00">vc_metrics</text>
</g>
<!-- 1&#45;&gt;0 -->
<g id="edge1" class="edge"><title>1&#45;&gt;0</title>
<path fill="none" stroke="grey" stroke-width="2" d="M90.618,-71.6966C96.1388,-63.4741 102.847,-53.4832 108.932,-44.4207"/>
<polygon fill="grey" stroke="grey" points="111.847,-46.3576 114.516,-36.1043 106.035,-42.4555 111.847,-46.3576"/>
</g>
<!-- 2 -->
<g id="node3" class="node"><title>2</title>
<path fill="none" stroke="#d85656" stroke-width="2" d="M200.25,-108C200.25,-108 145.75,-108 145.75,-108 139.75,-108 133.75,-102 133.75,-96 133.75,-96 133.75,-84 133.75,-84 133.75,-78 139.75,-72 145.75,-72 145.75,-72 200.25,-72 200.25,-72 206.25,-72 212.25,-78 212.25,-84 212.25,-84 212.25,-96 212.25,-96 212.25,-102 206.25,-108 200.25,-108"/>
<text text-anchor="middle" x="173" y="-87.5" font-family="sans" font-size="10.00">sniff_sv_met</text>
</g>
<!-- 2&#45;&gt;0 -->
<g id="edge2" class="edge"><title>2&#45;&gt;0</title>
<path fill="none" stroke="grey" stroke-width="2" d="M161.382,-71.6966C155.861,-63.4741 149.153,-53.4832 143.068,-44.4207"/>
<polygon fill="grey" stroke="grey" points="145.965,-42.4555 137.484,-36.1043 140.153,-46.3576 145.965,-42.4555"/>
</g>
<!-- 3 -->
<g id="node4" class="node"><title>3</title>
<path fill="none" stroke="#5682d8" stroke-width="2" d="M106,-180C106,-180 48,-180 48,-180 42,-180 36,-174 36,-168 36,-168 36,-156 36,-156 36,-150 42,-144 48,-144 48,-144 106,-144 106,-144 112,-144 118,-150 118,-156 118,-156 118,-168 118,-168 118,-174 112,-180 106,-180"/>
<text text-anchor="middle" x="77" y="-159.5" font-family="sans" font-size="10.00">freebayes_vc</text>
</g>
<!-- 3&#45;&gt;1 -->
<g id="edge3" class="edge"><title>3&#45;&gt;1</title>
<path fill="none" stroke="grey" stroke-width="2" d="M77.4944,-143.697C77.7148,-135.983 77.9796,-126.712 78.2254,-118.112"/>
<polygon fill="grey" stroke="grey" points="81.7242,-118.2 78.5113,-108.104 74.727,-118 81.7242,-118.2"/>
</g>
<!-- 4 -->
<g id="node5" class="node"><title>4</title>
<path fill="none" stroke="#56d86b" stroke-width="2" d="M200,-180C200,-180 150,-180 150,-180 144,-180 138,-174 138,-168 138,-168 138,-156 138,-156 138,-150 144,-144 150,-144 150,-144 200,-144 200,-144 206,-144 212,-150 212,-156 212,-156 212,-168 212,-168 212,-174 206,-180 200,-180"/>
<text text-anchor="middle" x="175" y="-159.5" font-family="sans" font-size="10.00">sniffles_svc</text>
</g>
<!-- 4&#45;&gt;2 -->
<g id="edge4" class="edge"><title>4&#45;&gt;2</title>
<path fill="none" stroke="grey" stroke-width="2" d="M174.506,-143.697C174.285,-135.983 174.02,-126.712 173.775,-118.112"/>
<polygon fill="grey" stroke="grey" points="177.273,-118 173.489,-108.104 170.276,-118.2 177.273,-118"/>
</g>
<!-- 5 -->
<g id="node6" class="node"><title>5</title>
<path fill="none" stroke="#56d89a" stroke-width="2" d="M102.25,-252C102.25,-252 43.75,-252 43.75,-252 37.75,-252 31.75,-246 31.75,-240 31.75,-240 31.75,-228 31.75,-228 31.75,-222 37.75,-216 43.75,-216 43.75,-216 102.25,-216 102.25,-216 108.25,-216 114.25,-222 114.25,-228 114.25,-228 114.25,-240 114.25,-240 114.25,-246 108.25,-252 102.25,-252"/>
<text text-anchor="middle" x="73" y="-231.5" font-family="sans" font-size="10.00">sam_sorting1</text>
</g>
<!-- 5&#45;&gt;3 -->
<g id="edge5" class="edge"><title>5&#45;&gt;3</title>
<path fill="none" stroke="grey" stroke-width="2" d="M73.9888,-215.697C74.4296,-207.983 74.9593,-198.712 75.4507,-190.112"/>
<polygon fill="grey" stroke="grey" points="78.9463,-190.288 76.0226,-180.104 71.9577,-189.888 78.9463,-190.288"/>
</g>
<!-- 6 -->
<g id="node7" class="node"><title>6</title>
<path fill="none" stroke="#70d856" stroke-width="2" d="M207.25,-252C207.25,-252 148.75,-252 148.75,-252 142.75,-252 136.75,-246 136.75,-240 136.75,-240 136.75,-228 136.75,-228 136.75,-222 142.75,-216 148.75,-216 148.75,-216 207.25,-216 207.25,-216 213.25,-216 219.25,-222 219.25,-228 219.25,-228 219.25,-240 219.25,-240 219.25,-246 213.25,-252 207.25,-252"/>
<text text-anchor="middle" x="178" y="-231.5" font-family="sans" font-size="10.00">sam_sorting2</text>
</g>
<!-- 6&#45;&gt;4 -->
<g id="edge6" class="edge"><title>6&#45;&gt;4</title>
<path fill="none" stroke="grey" stroke-width="2" d="M177.258,-215.697C176.928,-207.983 176.531,-198.712 176.162,-190.112"/>
<polygon fill="grey" stroke="grey" points="179.658,-189.945 175.733,-180.104 172.665,-190.245 179.658,-189.945"/>
</g>
<!-- 7 -->
<g id="node8" class="node"><title>7</title>
<path fill="none" stroke="#d88556" stroke-width="2" d="M118.25,-324C118.25,-324 11.75,-324 11.75,-324 5.75,-324 -0.25,-318 -0.25,-312 -0.25,-312 -0.25,-300 -0.25,-300 -0.25,-294 5.75,-288 11.75,-288 11.75,-288 118.25,-288 118.25,-288 124.25,-288 130.25,-294 130.25,-300 130.25,-300 130.25,-312 130.25,-312 130.25,-318 124.25,-324 118.25,-324"/>
<text text-anchor="middle" x="65" y="-303.5" font-family="sans" font-size="10.00">minimap2_illum_nanop</text>
</g>
<!-- 7&#45;&gt;5 -->
<g id="edge7" class="edge"><title>7&#45;&gt;5</title>
<path fill="none" stroke="grey" stroke-width="2" d="M66.9775,-287.697C67.8591,-279.983 68.9186,-270.712 69.9014,-262.112"/>
<polygon fill="grey" stroke="grey" points="73.387,-262.437 71.0452,-252.104 66.4323,-261.642 73.387,-262.437"/>
</g>
<!-- 8 -->
<g id="node9" class="node"><title>8</title>
<path fill="none" stroke="#56d8c9" stroke-width="2" d="M203.25,-324C203.25,-324 160.75,-324 160.75,-324 154.75,-324 148.75,-318 148.75,-312 148.75,-312 148.75,-300 148.75,-300 148.75,-294 154.75,-288 160.75,-288 160.75,-288 203.25,-288 203.25,-288 209.25,-288 215.25,-294 215.25,-300 215.25,-300 215.25,-312 215.25,-312 215.25,-318 209.25,-324 203.25,-324"/>
<text text-anchor="middle" x="182" y="-303.5" font-family="sans" font-size="10.00">ngmlr_svc</text>
</g>
<!-- 8&#45;&gt;6 -->
<g id="edge8" class="edge"><title>8&#45;&gt;6</title>
<path fill="none" stroke="grey" stroke-width="2" d="M181.011,-287.697C180.57,-279.983 180.041,-270.712 179.549,-262.112"/>
<polygon fill="grey" stroke="grey" points="183.042,-261.888 178.977,-252.104 176.054,-262.288 183.042,-261.888"/>
</g>
<!-- 9 -->
<g id="node10" class="node"><title>9</title>
<path fill="none" stroke="#56b1d8" stroke-width="2" d="M142,-396C142,-396 104,-396 104,-396 98,-396 92,-390 92,-384 92,-384 92,-372 92,-372 92,-366 98,-360 104,-360 104,-360 142,-360 142,-360 148,-360 154,-366 154,-372 154,-372 154,-384 154,-384 154,-390 148,-396 142,-396"/>
<text text-anchor="middle" x="123" y="-375.5" font-family="sans" font-size="10.00">porechop</text>
</g>
<!-- 9&#45;&gt;7 -->
<g id="edge9" class="edge"><title>9&#45;&gt;7</title>
<path fill="none" stroke="grey" stroke-width="2" d="M108.663,-359.697C101.709,-351.305 93.2298,-341.07 85.5994,-331.861"/>
<polygon fill="grey" stroke="grey" points="88.2475,-329.571 79.1722,-324.104 82.8573,-334.038 88.2475,-329.571"/>
</g>
<!-- 9&#45;&gt;8 -->
<g id="edge10" class="edge"><title>9&#45;&gt;8</title>
<path fill="none" stroke="grey" stroke-width="2" d="M137.584,-359.697C144.658,-351.305 153.283,-341.07 161.045,-331.861"/>
<polygon fill="grey" stroke="grey" points="163.815,-334.006 167.583,-324.104 158.463,-329.495 163.815,-334.006"/>
</g>
<!-- 10 -->
<g id="node11" class="node"><title>10</title>
<path fill="none" stroke="#d8b456" stroke-width="2" d="M194.25,-468C194.25,-468 51.75,-468 51.75,-468 45.75,-468 39.75,-462 39.75,-456 39.75,-456 39.75,-444 39.75,-444 39.75,-438 45.75,-432 51.75,-432 51.75,-432 194.25,-432 194.25,-432 200.25,-432 206.25,-438 206.25,-444 206.25,-444 206.25,-456 206.25,-456 206.25,-462 200.25,-468 194.25,-468"/>
<text text-anchor="middle" x="123" y="-453" font-family="sans" font-size="10.00">nanoqc</text>
<text text-anchor="middle" x="123" y="-442" font-family="sans" font-size="10.00">sample: X_nanopore_runs1234</text>
</g>
<!-- 10&#45;&gt;9 -->
<g id="edge11" class="edge"><title>10&#45;&gt;9</title>
<path fill="none" stroke="grey" stroke-width="2" d="M123,-431.697C123,-423.983 123,-414.712 123,-406.112"/>
<polygon fill="grey" stroke="grey" points="126.5,-406.104 123,-396.104 119.5,-406.104 126.5,-406.104"/>
</g>
</g>
</svg>
